<svg xmlns="http://www.w3.org/2000/svg" width="731" height="731" viewBox="0 0 731 731" version="1.1">
	<path d="M 441 189.500 L 441 204 448.500 204 L 456 204 456 189.500 L 456 175 448.500 175 L 441 175 441 189.500 M 377.750 193.623 C 374.587 195.529, 372 197.543, 372 198.097 C 372 199.082, 383.327 219.304, 385.230 221.716 C 386.135 222.864, 388.102 221.993, 397.792 216.152 C 398.756 215.571, 397.242 212.149, 391.832 202.687 C 387.842 195.709, 384.336 190.035, 384.039 190.079 C 383.743 190.122, 380.913 191.717, 377.750 193.623 M 505.114 202.645 C 499.402 212.474, 498.070 215.472, 499.133 216.110 C 499.885 216.562, 502.851 218.299, 505.724 219.971 L 510.947 223.010 512.344 220.755 C 517.172 212.961, 525 198.951, 525 198.103 C 525 197.342, 513.835 190, 512.677 190 C 512.558 190, 509.155 195.690, 505.114 202.645 M 296.500 218.631 C 236.551 225.111, 191.790 268.097, 186.181 324.575 L 185.500 331.433 177.936 333.533 C 169.934 335.754, 154.669 342.489, 152.954 344.556 C 152.229 345.429, 152.968 347.544, 155.516 351.891 C 157.485 355.251, 159.310 358, 159.573 358 C 159.835 358, 163.157 356.435, 166.954 354.523 C 175.082 350.430, 185.221 347.457, 194.407 346.473 L 201 345.767 201 337.514 C 201 300.580, 220.896 266.137, 252.412 248.512 C 261.955 243.176, 278.565 237.249, 289.132 235.411 C 301.671 233.230, 321.156 233.934, 333 236.997 C 342.591 239.477, 357.486 246.143, 364.630 251.153 C 367.256 252.994, 369.820 254.787, 370.328 255.137 C 370.836 255.487, 369.807 257.873, 368.041 260.440 C 359.058 273.497, 352.397 292.098, 351.332 307.103 L 350.714 315.810 357.338 316.520 C 366.411 317.491, 366.999 317.143, 367.007 310.781 C 367.017 303.421, 370.356 290.264, 374.478 281.342 C 384.824 258.948, 402.828 243.906, 427.843 236.754 C 438.876 233.599, 458.231 233.637, 469.500 236.835 C 498.599 245.091, 520.770 267.689, 528.038 296.500 C 530.828 307.560, 530.819 324.555, 528.016 335.500 C 523.008 355.060, 510.778 372.879, 494.908 383.737 C 489.115 387.700, 475.169 393.506, 466.300 395.647 C 456.363 398.045, 438.728 397.781, 428.500 395.080 C 399.328 387.378, 376.278 364.571, 369.295 336.500 C 368.337 332.650, 367.429 329.312, 367.276 329.083 C 366.840 328.427, 352 332.319, 352 333.088 C 352 335.240, 357.441 352.017, 359.892 357.421 C 368.945 377.388, 389.322 397.271, 409.551 405.876 C 423.019 411.605, 432.015 413.365, 448 413.400 C 459.796 413.426, 464.177 413.011, 471.493 411.177 C 482.444 408.431, 498.319 400.955, 506.724 394.586 C 520.133 384.425, 532.914 367.879, 539.040 352.750 C 540.320 349.587, 541.986 347, 542.741 347 C 549.842 347, 570.778 356.496, 578.710 363.314 C 596.896 378.946, 606.016 397.945, 606.066 420.301 C 606.093 432.584, 603.437 443.289, 597.462 454.975 C 587.956 473.568, 570.187 487.656, 549.442 493.048 C 543.203 494.669, 537.026 495.241, 520.636 495.712 L 499.772 496.313 500.469 503.387 C 500.853 507.277, 501.381 510.807, 501.642 511.230 C 502.314 512.317, 524.373 512.171, 537.698 510.992 C 561.697 508.867, 580.313 499.871, 597.115 482.278 C 629.733 448.125, 630.307 395.578, 598.440 361.158 C 590.270 352.334, 582.528 346.268, 572.824 341.087 C 565.801 337.337, 550.752 332, 547.198 332 C 545.673 331.999, 545.498 330.391, 545.477 316.250 C 545.457 303.003, 545.088 299.149, 543.156 292 C 534.032 258.238, 508.834 232.394, 475.288 222.393 C 464.445 219.161, 444.306 218.031, 432.233 219.979 C 416.896 222.453, 402.625 228.669, 389.388 238.642 C 385.477 241.589, 381.970 244, 381.595 244 C 381.221 244, 378.571 242.237, 375.707 240.082 C 364.049 231.311, 345.930 223.587, 329.814 220.518 C 321.205 218.879, 303.487 217.875, 296.500 218.631 M 554.660 245.990 C 548.159 249.751, 542.602 253.064, 542.312 253.354 C 541.573 254.093, 547.964 265.049, 549.472 265.628 C 550.437 265.998, 571.856 254.383, 573.977 252.339 C 574.533 251.803, 568.983 241.245, 567.490 239.998 C 566.895 239.500, 561.630 241.959, 554.660 245.990 M 560.206 316.250 L 560.500 323.500 575.250 323.777 L 590 324.053 590 316.527 L 590 309 574.956 309 L 559.912 309 560.206 316.250 M 132.293 362.422 C 124.763 370.639, 117.802 382.940, 113.855 395 C 109.791 407.421, 108.810 425.016, 111.453 438.073 C 117.558 468.227, 138.652 493.589, 167 504.857 C 182.045 510.838, 185.370 511.178, 233.500 511.656 C 257.700 511.896, 277.989 511.735, 278.586 511.297 C 279.667 510.504, 287 497.820, 287 496.743 C 287 496.433, 265.288 495.989, 238.750 495.757 C 193.168 495.358, 190.058 495.215, 182.500 493.173 C 141.621 482.127, 117.726 443.080, 127.661 403.558 C 130.549 392.066, 139.016 376.931, 146.392 370.076 C 147.826 368.742, 149 367.109, 149 366.447 C 149 365.785, 146.565 363.163, 143.589 360.621 L 138.179 355.998 132.293 362.422 M 238.847 407.227 C 229.623 418.945, 224.301 427.096, 220.140 435.878 C 216.874 442.772, 216.529 444.312, 216.526 452 C 216.524 461.727, 218.157 465.826, 224.652 472.387 C 238.947 486.827, 263.215 482.912, 272.772 464.623 C 274.981 460.396, 275.454 458.169, 275.475 451.891 C 275.499 444.702, 275.214 443.709, 270.310 433.891 C 265.794 424.850, 248.501 400.033, 246.155 399.227 C 245.718 399.076, 242.429 402.676, 238.847 407.227 M 243.020 428.960 C 240.494 433.912, 240.430 441.149, 242.865 446.509 C 245.784 452.933, 255.817 460.583, 258.199 458.201 C 260.062 456.338, 260.243 450.064, 258.557 445.790 C 256.589 440.802, 246.882 425, 245.785 425 C 245.376 425, 244.132 426.782, 243.020 428.960 M 316.745 479.370 C 300.449 498.246, 289.561 520.456, 291.498 530.870 C 295.971 554.920, 323.812 564.813, 341.655 548.692 C 347.379 543.522, 350.367 536.923, 350.821 528.455 C 351.084 523.531, 350.717 520.257, 349.599 517.583 C 348.720 515.478, 348 513.365, 348 512.887 C 348 512.408, 372.175 511.901, 401.750 511.759 L 455.500 511.500 455.792 503.750 L 456.084 496 397.292 495.999 L 338.500 495.999 331.500 486.889 C 327.650 481.878, 323.812 476.913, 322.970 475.855 C 321.503 474.011, 321.248 474.155, 316.745 479.370 M 470.444 503.250 C 470.831 507.238, 471.497 510.861, 471.925 511.302 C 472.353 511.742, 475.582 511.967, 479.102 511.802 L 485.500 511.500 485.792 503.750 L 486.084 496 477.913 496 L 469.742 496 470.444 503.250 M 319.106 503.065 C 313.317 512.585, 316.482 524.975, 326.336 531.364 C 333.098 535.749, 335 534.751, 335 526.814 C 335 522.496, 330.433 512.774, 324.453 504.363 L 321.146 499.712 319.106 503.065" stroke="none" fill="black" fill-rule="evenodd"/>
</svg>