<svg xmlns="http://www.w3.org/2000/svg" width="512" height="512" viewBox="0 0 512 512" version="1.1">
	<path d="M 331 80.042 L 331 95.084 338.750 94.792 L 346.500 94.500 346.777 79.750 L 347.053 65 339.027 65 L 331 65 331 80.042 M 267.783 83.842 L 261.068 87.587 268.159 100.044 C 272.059 106.895, 275.432 112.702, 275.656 112.948 C 276.192 113.539, 286.807 107.858, 288.184 106.243 C 288.980 105.310, 287.517 101.961, 282.506 93.243 C 278.794 86.784, 275.473 81.184, 275.127 80.799 C 274.780 80.413, 271.476 81.783, 267.783 83.842 M 395.500 92.177 C 391.650 98.862, 388.371 104.645, 388.213 105.027 C 387.911 105.758, 399.524 113, 400.997 113 C 401.918 113, 416.452 88.106, 415.858 87.544 C 415.265 86.982, 403.189 79.999, 402.832 80.011 C 402.649 80.017, 399.350 85.492, 395.500 92.177 M 183.630 109.060 C 142.510 113.834, 105.781 138.785, 88.037 174 C 81.436 187.099, 76.012 206.626, 75.992 217.360 L 75.985 221.500 67.742 223.784 C 58.958 226.219, 44.699 232.453, 42.868 234.659 C 42.046 235.649, 42.178 236.622, 43.382 238.460 C 44.272 239.818, 45 241.116, 45 241.345 C 45 241.573, 42.487 243.657, 39.416 245.975 L 33.832 250.191 31.401 247.907 L 28.970 245.623 24.895 249.562 C 14.737 259.378, 4.670 278.713, 1.344 294.792 C -1.213 307.159, -0.128 325.857, 3.851 338 C 8.060 350.843, 14.832 362.410, 23.785 372.048 C 32.734 381.680, 40.888 387.671, 52.373 393.053 C 69.863 401.250, 70.553 401.335, 123.067 401.761 L 169.634 402.139 171.469 398.069 L 173.304 394 181.152 394 C 185.468 394, 189 394.240, 189 394.533 C 189 394.827, 187.864 397.308, 186.475 400.049 C 182.805 407.292, 180.712 416.325, 181.546 421.321 C 185.595 445.567, 215.543 455.510, 232.737 438.316 C 242.282 428.770, 244.158 417.079, 238.360 403.259 C 237.950 402.281, 249.374 401.962, 292.170 401.759 L 346.500 401.500 346.810 397.750 L 347.121 394 354.060 394 L 361 394 361 398.042 L 361 402.084 368.750 401.792 L 376.500 401.500 376.810 397.750 L 377.121 394 384.060 394 L 391 394 391 398.109 L 391 402.217 413.250 401.750 C 431.869 401.359, 436.806 400.931, 443.500 399.131 C 474.025 390.922, 498.490 367.832, 508.018 338.238 C 509.658 333.144, 511 327.883, 511 326.547 C 511 325.211, 511.450 323.840, 512 323.500 C 513.204 322.756, 513.376 298, 512.177 298 C 511.724 298, 510.862 295.357, 510.261 292.127 C 507.182 275.572, 494.720 254.599, 481.297 243.384 C 469.742 233.730, 455.479 226.260, 442.860 223.254 L 435.500 221.500 436.251 214.500 C 437.175 205.898, 435.621 189.701, 432.947 180.051 C 425.267 152.337, 403.545 127.626, 377.054 116.467 C 362.788 110.458, 357.329 109.493, 338 109.565 C 321.947 109.624, 319.773 109.852, 311.712 112.321 C 298.625 116.330, 286.359 122.922, 274.799 132.159 L 272.098 134.317 264.532 129.088 C 241.266 113.003, 212.023 105.764, 183.630 109.060 M 445.500 135.594 C 439.450 139.170, 433.868 142.468, 433.095 142.924 C 431.959 143.594, 432.401 145.024, 435.394 150.377 C 437.431 154.019, 439.316 157, 439.583 157 C 440.031 157, 460.784 145.148, 463.850 143.142 C 464.921 142.441, 464.412 140.889, 461.387 135.629 C 459.290 131.983, 457.332 129.021, 457.037 129.046 C 456.742 129.072, 451.550 132.018, 445.500 135.594 M 324.500 140.680 C 321.895 141.264, 312.600 144.185, 312.160 144.558 C 311.900 144.779, 316.602 156.300, 317.560 157.790 C 318.030 158.521, 330 154.555, 330 153.668 C 330 150.896, 327.710 140.015, 327.147 140.116 C 326.791 140.180, 325.600 140.434, 324.500 140.680 M 160.500 146.295 C 150.925 150.528, 151.246 149.826, 155.451 157.346 C 159.131 163.926, 159.174 163.962, 161.828 162.596 C 163.298 161.840, 166.168 160.528, 168.207 159.680 L 171.915 158.138 169.635 151.378 C 168.381 147.660, 166.937 144.498, 166.427 144.352 C 165.917 144.205, 163.250 145.080, 160.500 146.295 M 291.143 159.143 C 288.314 161.971, 286 164.617, 286 165.023 C 286 165.428, 288.527 167.668, 291.616 170 L 297.233 174.241 301.787 169.687 L 306.341 165.133 302.138 159.566 C 299.826 156.505, 297.564 154, 297.110 154 C 296.657 154, 293.971 156.314, 291.143 159.143 M 131.966 165.563 L 126.500 171.126 132 176.031 C 135.025 178.729, 137.742 180.951, 138.038 180.968 C 138.333 180.986, 140.759 178.783, 143.428 176.073 L 148.280 171.147 143.519 165.573 C 140.900 162.508, 138.459 160, 138.094 160 C 137.730 160, 134.972 162.503, 131.966 165.563 M 450 206.500 L 450 214 465 214 L 480 214 480 206.500 L 480 199 465 199 L 450 199 450 206.500 M 0.389 311.500 C 0.390 318.650, 0.550 321.444, 0.742 317.708 C 0.935 313.973, 0.934 308.123, 0.739 304.708 C 0.545 301.294, 0.387 304.350, 0.389 311.500" stroke="none" fill="black" fill-rule="evenodd"/>
</svg>